<svg width="690.106262" height="751.428711" viewBox="0 0 690.106 751.429" fill="none" xmlns="http://www.w3.org/2000/svg" xmlns:xlink="http://www.w3.org/1999/xlink">
	<desc>
			Created with Pixso.
	</desc>
	<g filter="url(#filter_1_32_dd)">
		<path d="M51.7042 222.088C82.2971 130.334 150.896 52.5943 230.324 33.8833C309.624 14.6579 400.339 54.8614 463.632 107.911C527.512 161.36 563.971 227.656 596.072 290.121C628.302 353.101 656.631 412.136 658.051 472.419C659.471 532.701 633.394 593.83 591.771 627.697C550.02 661.05 491.679 666.856 423.747 684.886C356.145 702.287 278.366 731.513 212.002 707.089C145.637 682.665 90.5587 604.077 59.3128 511.9C28.0669 419.723 21.1113 313.841 51.7042 222.088Z" fill-rule="evenodd" fill="#2EB66C"/>
	</g>
	<defs>
		<filter id="filter_1_32_dd" x="0.000000" y="0.000000" width="690.106262" height="751.428711" filterUnits="userSpaceOnUse" color-interpolation-filters="sRGB">
			<feFlood flood-opacity="0" result="BackgroundImageFix"/>
			<feColorMatrix in="SourceAlpha" type="matrix" values="0 0 0 0 0 0 0 0 0 0 0 0 0 0 0 0 0 0 127 0"/>
			<feOffset dx="0" dy="3"/>
			<feGaussianBlur stdDeviation="10.6667"/>
			<feColorMatrix type="matrix" values="0 0 0 0 0 0 0 0 0 0 0 0 0 0 0 0 0 0 0.27 0"/>
			<feBlend mode="normal" in2="BackgroundImageFix" result="effect_dropShadow_1"/>
			<feBlend mode="normal" in="SourceGraphic" in2="effect_dropShadow_1" result="shape"/>
		</filter>
	</defs>
</svg>
