<svg width="176.000000" height="78.200005" viewBox="0 0 176 78.2" fill="none" xmlns="http://www.w3.org/2000/svg" xmlns:xlink="http://www.w3.org/1999/xlink">
	<desc>
			Created with Pixso.
	</desc>
	<path d="M103.011 57.2L103.011 18.7205L95.7369 18.7205L95.7369 57.2L103.011 57.2ZM10.8672 35.8846L10.8672 26.782L24.6543 26.782L24.6543 20.8533L3.59277 20.8533L3.59277 57.2L24.6543 57.2L24.6543 51.2713L10.8672 51.2713L10.8672 41.6482L23.0928 41.6482L23.0928 35.8846L10.8672 35.8846ZM31.1933 34.9705Q29.3779 38.3221 29.3779 42.7908Q29.3779 47.2723 31.1933 50.6238Q33.0215 53.9754 36.2461 55.8289Q39.4707 57.6697 43.622 57.6697Q48.9287 57.6697 52.458 54.9148Q56 52.16 57.206 47.4754L49.3476 47.4754Q48.0019 51.4236 43.5713 51.4236Q40.4609 51.4236 38.6328 49.1639Q36.8174 46.9041 36.8174 42.7908Q36.8174 38.6395 38.6328 36.3797Q40.4609 34.1072 43.5713 34.1072Q45.7549 34.1072 47.2402 35.1736Q48.7256 36.24 49.3476 38.1189L57.206 38.1189Q56 33.282 52.4834 30.6033Q48.9795 27.9246 43.622 27.9246Q39.4707 27.9246 36.2461 29.7781Q33.0215 31.6189 31.1933 34.9705ZM67.8548 55.8289Q71.1936 57.6697 75.345 57.6697Q79.5599 57.6697 82.9622 55.8289Q86.3772 53.9754 88.3704 50.5984Q90.3763 47.2215 90.3763 42.7908Q90.3763 38.3729 88.4212 34.9959Q86.4788 31.6189 83.0892 29.7781Q79.7122 27.9246 75.5608 27.9246Q71.3968 27.9246 68.0071 29.7781Q64.6302 31.6189 62.6751 34.9959Q60.7327 38.3729 60.7327 42.7908Q60.7327 47.2215 62.6243 50.5984Q64.5286 53.9754 67.8548 55.8289ZM115.487 55.8289Q118.826 57.6697 122.977 57.6697Q127.192 57.6697 130.594 55.8289Q134.009 53.9754 136.002 50.5984Q138.008 47.2215 138.008 42.7908Q138.008 38.3729 136.053 34.9959Q134.111 31.6189 130.721 29.7781Q127.344 27.9246 123.193 27.9246Q119.029 27.9246 115.639 29.7781Q112.262 31.6189 110.307 34.9959Q108.365 38.3729 108.365 42.7908Q108.365 47.2215 110.256 50.5984Q112.161 53.9754 115.487 55.8289ZM160.304 29.2068Q157.867 27.9246 154.642 27.9246Q150.961 27.9246 147.965 29.7527Q144.981 31.5682 143.229 34.9451Q141.49 38.3221 141.49 42.6893Q141.49 47.1072 143.229 50.5223Q144.981 53.9246 147.99 55.8035Q151.011 57.6697 154.642 57.6697Q157.816 57.6697 160.279 56.324Q162.755 54.9656 164.164 52.9344L164.164 57.4031Q164.164 61.2498 162.183 63.1414Q160.216 65.0457 157.042 65.0457Q154.338 65.0457 152.433 63.8777Q150.542 62.7098 149.97 60.742L142.734 60.742Q143.255 65.6805 147.177 68.5369Q151.113 71.3934 157.245 71.3934Q161.828 71.3934 165.052 69.5398Q168.277 67.699 169.889 64.5506Q171.502 61.4148 171.502 57.4031L171.502 28.3943L164.164 28.3943L164.164 32.4949Q162.755 30.4764 160.304 29.2068ZM79.0647 50.3699Q77.3255 51.3221 75.345 51.3221Q72.222 51.3221 70.1653 49.1131Q68.1214 46.9041 68.1214 42.7908Q68.1214 38.6902 70.2288 36.4813Q72.3362 34.2723 75.4466 34.2723Q78.5696 34.2723 80.7278 36.4813Q82.886 38.6902 82.886 42.7908Q82.886 45.5457 81.845 47.4754Q80.804 49.4051 79.0647 50.3699ZM126.697 50.3699Q124.958 51.3221 122.977 51.3221Q119.854 51.3221 117.797 49.1131Q115.753 46.9041 115.753 42.7908Q115.753 38.6902 117.861 36.4813Q119.968 34.2723 123.079 34.2723Q126.202 34.2723 128.36 36.4813Q130.518 38.6902 130.518 42.7908Q130.518 45.5457 129.477 47.4754Q128.436 49.4051 126.697 50.3699ZM163.123 38.2586Q164.164 40.1502 164.164 42.7908Q164.164 45.4441 163.123 47.3484Q162.082 49.24 160.317 50.2557Q158.552 51.2713 156.521 51.2713Q154.541 51.2713 152.802 50.2303Q151.062 49.1893 149.996 47.2469Q148.929 45.2918 148.929 42.6893Q148.929 40.0867 149.996 38.1951Q151.062 36.2908 152.776 35.3133Q154.49 34.3231 156.521 34.3231Q158.552 34.3231 160.317 35.3387Q162.082 36.3543 163.123 38.2586Z" fill="#FFFFFF"/>
	<defs/>
</svg>
