<svg width="23.054199" height="23.054260" viewBox="0 0 23.0542 23.0543" fill="none" xmlns="http://www.w3.org/2000/svg" xmlns:xlink="http://www.w3.org/1999/xlink">
	<desc>
			Created with Pixso.
	</desc>
	<path d="M21.7816 0L1.27148 0C0.569153 0.000366211 -0.000183105 0.570068 0 1.27258L0 21.7827C0.000366211 22.485 0.570068 23.0544 1.27258 23.0542L21.7816 23.0542C22.4843 23.0544 23.054 22.4849 23.0542 21.7822L23.0542 1.27148C23.0538 0.569153 22.4841 -0.000183105 21.7816 0Z" fill-rule="evenodd" fill="#4267B2"/>
	<path d="M15.9173 23.0542L15.9173 14.1387L18.9229 14.1387L19.3732 10.649L15.9173 10.649L15.9173 8.42651C15.9173 7.41852 16.1971 6.73169 17.6426 6.73169L19.4745 6.73169L19.4745 3.61896C19.1558 3.57654 18.0623 3.48175 16.7899 3.48175C14.1333 3.48175 12.3151 5.10278 12.3151 8.08093L12.3151 10.649L9.32074 10.649L9.32074 14.1387L12.3151 14.1387L12.3151 23.0542L15.9173 23.0542Z" fill-rule="evenodd" fill="#FFFFFF"/>
	<defs/>
</svg>
