<svg width="20.296143" height="20.296143" viewBox="0 0 20.2961 20.2961" fill="none" xmlns="http://www.w3.org/2000/svg" xmlns:xlink="http://www.w3.org/1999/xlink">
	<desc>
			Created with Pixso.
	</desc>
	<path d="M19.5298 8.38367L11.2512 8.38324C10.8856 8.38324 10.5894 8.6795 10.5894 9.04504L10.5894 11.6897C10.5894 12.0552 10.8856 12.3516 11.2512 12.3516L15.9132 12.3516C15.4027 13.6764 14.4498 14.7859 13.2343 15.4908L15.2221 18.9321C18.4109 17.0879 20.2961 13.8521 20.2961 10.2297C20.2961 9.71393 20.2582 9.34521 20.1821 8.93005C20.1243 8.61462 19.8505 8.38367 19.5298 8.38367Z" fill-rule="evenodd" fill="#167EE6"/>
	<path d="M10.1481 16.3251C7.86658 16.3251 5.87488 15.0786 4.80511 13.234L1.36407 15.2174C3.11523 18.2524 6.39563 20.2961 10.1481 20.2961C11.9889 20.2961 13.7258 19.8005 15.2221 18.9368L13.2343 15.4908C12.325 16.0182 11.2727 16.3251 10.1481 16.3251Z" fill-rule="evenodd" fill="#12B347"/>
	<path d="M15.2221 18.9368L13.2343 15.4908C12.325 16.0182 11.2728 16.3252 10.1481 16.3252L10.1481 20.2961C11.9889 20.2961 13.7259 19.8005 15.2221 18.9368Z" fill-rule="evenodd" fill="#0F993E"/>
	<path d="M3.97101 10.1481C3.97101 9.0235 4.27789 7.97137 4.80518 7.06213L1.36407 5.07874C0.495605 6.57031 0 8.30255 0 10.1481C0 11.9936 0.495605 13.7258 1.36407 15.2174L4.80518 13.234C4.27789 12.3247 3.97101 11.2726 3.97101 10.1481Z" fill-rule="evenodd" fill="#FFD500"/>
	<path d="M10.1481 3.97101C11.6358 3.97101 13.0024 4.49963 14.0698 5.37897C14.3331 5.59589 14.7159 5.58026 14.9571 5.33905L16.8309 3.46521C17.1046 3.19153 17.0851 2.74353 16.7927 2.48993C15.0043 0.938416 12.6774 0 10.1481 0C6.39563 0 3.11523 2.04376 1.36407 5.07874L4.80518 7.06213C5.87488 5.21753 7.86658 3.97101 10.1481 3.97101Z" fill-rule="evenodd" fill="#FF4B26"/>
	<path d="M14.0698 5.37897C14.3332 5.59589 14.7159 5.58026 14.9572 5.33905L16.8309 3.46521C17.1046 3.19153 17.0851 2.74353 16.7927 2.48993C15.0044 0.938354 12.6775 0 10.1481 0L10.1481 3.97101C11.6359 3.97101 13.0024 4.49963 14.0698 5.37897Z" fill-rule="evenodd" fill="#D93F21"/>
	<defs/>
</svg>
