<svg width="623.539734" height="322.835602" viewBox="0 0 623.54 322.836" fill="none" xmlns="http://www.w3.org/2000/svg" xmlns:xlink="http://www.w3.org/1999/xlink">
	<desc>
			Created with Pixso.
	</desc>
	<g opacity="0.300000">
		<path d="M31.8837 322.606C27.2442 319.394 27.2157 321.352 24.1317 319.079C-16.7033 288.99 0.0306702 213.396 31.8837 188.223C91.1667 141.371 178.823 192.662 227.558 231.324C218.417 179.612 254.819 126.839 284.555 109.893C322.991 87.9903 388.679 81.3673 431.57 99.7163C501.97 129.832 536.77 196.617 561.022 265.083C630.907 240.136 643.924 320.562 591.348 321.026C570.402 321.21 132.384 321.026 102.991 321.026C80.3647 321.026 50.9436 319.394 31.8837 322.606Z" fill-rule="evenodd" fill="#E3F4FF"/>
	</g>
	<g opacity="0.400000">
		<path d="M131.06 26.2648C131.06 21.7423 127.394 18.0755 122.87 18.0755C121.021 18.0755 119.319 18.6964 117.947 19.7313C116.3 16.1953 112.723 13.7394 108.566 13.7394C106.956 5.89353 99.8862 7.62939e-06 91.5637 7.62939e-06C83.2302 7.62939e-06 76.2811 5.91575 74.6841 13.7751C74.447 13.7593 74.2122 13.7394 73.9719 13.7394C68.2529 13.7394 63.6154 18.3769 63.6154 24.0967C63.6154 29.8166 68.2529 34.4533 73.9719 34.4533L122.871 34.4533C127.394 34.4533 131.06 30.7872 131.06 26.2648Z" fill-rule="evenodd" fill="#F5F5F5"/>
		<path d="M403.234 38.5412C401.701 38.5412 400.242 38.8353 398.887 39.3475C395.148 28.9413 385.222 21.4871 373.529 21.4871C362.449 21.4871 352.942 28.171 348.791 37.7235C346.164 35.2666 342.646 33.7545 338.764 33.7545C330.644 33.7545 324.061 40.3379 324.061 48.458C324.061 56.5799 330.644 63.1633 338.764 63.1633L403.234 63.1633C410.033 63.1633 415.545 57.6519 415.545 50.8522C415.545 44.0526 410.033 38.5412 403.234 38.5412Z" fill-rule="evenodd" fill="#F5F5F5"/>
	</g>
	<line x1="446.156433" y1="320.835602" x2="31.156433" y2="320.835602" stroke="#2F2F2F" stroke-width="2.000000"/>
	<defs/>
</svg>
