<svg width="367.808136" height="253.431137" viewBox="0 0 367.808 253.431" fill="none" xmlns="http://www.w3.org/2000/svg" xmlns:xlink="http://www.w3.org/1999/xlink">
	<desc>
			Created with Pixso.
	</desc>
	<path d="M317.845 232.367C317.307 230.453 317.162 227.705 316.947 225.38C316.501 220.55 316.613 215.563 317.229 210.75C317.669 207.297 318.833 203.337 321.021 200.55C322.07 199.21 324.029 197.46 325.888 197.704C330.413 198.301 329.222 207.691 328.553 210.509C326.731 218.152 322.749 226.144 317.845 232.367Z" fill-rule="evenodd" fill="#4FC9B8"/>
	<path d="M328.994 201.859C328.963 201.86 326.105 201.713 324.099 202.979C325.165 199.789 325.944 197.798 325.968 197.736C325.945 197.797 325.158 199.813 324.099 202.979C323.585 200.475 322.401 199.195 322.356 199.144C322.367 199.157 323.618 200.32 324.099 202.979C323.358 205.208 322.236 208.214 321.39 211.319C320.835 206.69 319.208 203.759 319.19 203.73C319.207 203.762 320.891 206.483 321.39 211.319C320.755 213.68 320.015 216.663 319.477 219.273C318.57 214.416 317.14 212.222 317.126 212.2C317.141 212.222 318.583 214.158 319.477 219.273C319.067 221.304 318.616 223.828 318.337 225.897C317.589 222.066 316.768 220.462 316.76 220.446C316.77 220.462 317.496 222.262 318.265 226.438C318.011 228.434 317.832 230.424 317.759 232.362C317.832 230.424 318.01 228.431 318.265 226.438C319.756 223.962 323.989 222.76 324.03 222.748C323.989 222.759 319.993 223.566 318.337 225.897C318.62 223.776 319.056 221.356 319.477 219.273C322.124 216.153 326.738 216.412 326.784 216.411C326.738 216.412 322.195 216.31 319.477 219.273C320.022 216.618 320.744 213.715 321.39 211.319C323.166 208.991 328.802 209.028 328.859 209.024C328.635 209.038 323.41 209.18 321.39 211.319C322.238 208.204 323.356 205.214 324.099 202.979C326.065 201.623 328.963 201.859 328.994 201.859Z" fill-rule="evenodd" fill="#9B9B9B"/>
	<path d="M317.074 236.847C315.196 236.196 312.855 234.749 310.824 233.598C306.603 231.208 302.572 228.271 298.97 225.019C296.386 222.686 293.799 219.471 292.756 216.085C292.255 214.459 291.936 211.851 293.197 210.464C296.268 207.089 303.301 213.424 305.232 215.583C310.47 221.439 314.762 229.27 317.074 236.847Z" fill-rule="evenodd" fill="#4FC9B8"/>
	<path d="M298.381 210.284C298.364 210.308 296.613 212.573 296.508 214.944C294.496 212.248 293.304 210.471 293.268 210.417C293.305 210.471 294.512 212.269 296.508 214.944C294.158 213.939 292.431 214.178 292.364 214.188C292.381 214.185 294.051 213.823 296.508 214.944C297.918 216.826 299.744 219.46 301.811 221.926C297.694 219.74 294.357 219.405 294.324 219.401C294.359 219.404 297.556 219.576 301.811 221.926C303.386 223.795 305.415 226.104 307.252 228.036C302.747 226.009 300.128 225.931 300.101 225.931C300.127 225.931 302.541 225.852 307.252 228.036C308.687 229.532 310.501 231.341 312.041 232.75C308.468 231.18 306.685 230.938 306.666 230.935C306.685 230.937 308.174 230.999 312.041 232.75C313.535 234.099 315.471 235.748 317.022 236.915C315.472 235.748 314.046 234.332 312.553 232.984C311.37 230.348 312.691 226.319 312.704 226.279C312.69 226.318 311.072 230.061 312.041 232.75C310.461 231.309 308.721 229.569 307.252 228.036C306.2 224.081 309.045 220.44 309.07 220.401C309.046 220.439 306.37 224.113 307.252 228.036C305.382 226.073 303.411 223.824 301.811 221.926C300.913 219.141 304.159 214.531 304.188 214.482C304.072 214.676 301.208 219.048 301.811 221.926C299.737 219.452 297.921 216.828 296.508 214.944C296.518 212.554 298.364 210.308 298.381 210.284Z" fill-rule="evenodd" fill="#9B9B9B"/>
	<g opacity="0.500000">
		<path d="M302.772 213.23C302.772 213.23 300.909 211.595 299.506 210.869C299.506 210.869 304.459 227.015 315.148 234.996L315.287 234.028L310.197 220.764L302.772 213.23Z" fill-rule="evenodd" fill="#C1C1C1"/>
	</g>
	<path d="M317.272 237.174C317.064 235.856 314.41 233.109 313.524 231.806C310.613 227.524 307.918 223.243 305.451 218.677C301.485 211.335 297.595 201.476 298.546 192.966C298.898 189.819 300.491 184.589 304.456 184.637C307.417 184.673 309.528 188.053 310.747 190.397C313.952 196.555 315.188 203.57 316.214 210.367C317.392 218.179 317.846 226.153 318.345 234.064L317.272 237.174Z" fill-rule="evenodd" fill="#4FC9B8"/>
	<path d="M314.219 226.343C314.623 219.425 316.954 215.022 316.977 214.978C316.954 215.02 314.505 219.104 314.005 225.747C312.974 222.857 312.037 220.078 311.191 217.427C312.644 208.118 315.372 204.959 315.4 204.928C315.289 205.055 312.504 207.885 311.021 216.891C309.909 213.385 308.951 210.102 308.129 207.075C309.093 198.537 312.557 194.434 312.591 194.395C312.557 194.435 309.021 198.228 307.955 206.428C306.944 202.667 306.146 199.316 305.519 196.438C305.522 189.819 308.309 186.757 308.338 186.726C308.311 186.755 305.57 189.385 305.293 195.38C303.878 188.705 303.444 184.857 303.434 184.768C303.444 184.86 303.991 189.349 305.519 196.438C304.58 195.414 301.336 192.072 298.794 191.449C301.7 192.16 305.411 196.315 305.519 196.438C306.144 199.303 306.953 202.696 307.955 206.428C307.014 205.239 304.075 202.482 298.995 201.31C305.363 202.779 308.104 207.034 308.129 207.075C308.943 210.064 309.927 213.437 311.021 216.891C310.12 215.903 307.399 213.708 302.613 212.682C308.77 214 311.169 217.394 311.191 217.427C311.98 219.899 313.057 223.069 314.005 225.747C313.241 224.951 311.147 223.339 307.567 222.249C312.362 223.709 313.9 225.721 314.219 226.343C315.309 229.385 316.14 232.284 317.452 235.556C316.191 232.413 315.274 229.275 314.219 226.343Z" fill-rule="evenodd" fill="#9B9B9B"/>
	<g opacity="0.500000">
		<path d="M317.04 212.387C317.04 212.387 319.524 219.778 319.35 227.298L318.345 234.064C318.345 234.064 317.257 218.06 316.857 215.22L317.04 212.387Z" fill-rule="evenodd" fill="#C1C1C1"/>
	</g>
	<g opacity="0.500000">
		<path d="M328.409 199.77C328.409 199.77 329.415 202.305 329.4 204.961L319.366 231.533L319.34 224.195C319.34 224.195 321.202 211.177 328.409 199.77Z" fill-rule="evenodd" fill="#C1C1C1"/>
	</g>
	<path d="M317.148 237.125C317.371 234.2 318.558 230.309 319.438 226.973C321.262 220.043 323.941 213.178 327.229 206.806C329.588 202.237 333.209 197.329 337.655 194.565C339.789 193.237 343.394 191.798 345.852 193.078C351.832 196.196 345.426 208.629 343.07 212.2C336.675 221.888 327.104 230.971 317.148 237.125Z" fill-rule="evenodd" fill="#4FC9B8"/>
	<path d="M348.061 200.417C348.019 200.402 344.125 198.752 340.698 199.496C343.791 195.605 345.881 193.234 345.946 193.163C345.884 193.234 343.768 195.639 340.698 199.496C341.25 195.762 340.256 193.383 340.218 193.29C340.229 193.313 341.376 195.564 340.698 199.496C338.541 202.22 335.465 205.82 332.719 209.701C334.29 202.997 333.514 198.104 333.505 198.054C333.513 198.104 334.082 203.282 332.328 210.246C330.251 213.201 328.107 216.423 326.038 219.777C327.237 212.575 326.363 208.805 326.354 208.767C326.364 208.805 327.031 212.796 325.685 220.35C324.088 222.962 322.539 225.662 321.106 228.395C322.005 222.697 321.679 220.058 321.674 220.03C321.678 220.059 321.778 222.924 320.732 229.11C319.369 231.752 318.115 234.423 317.031 237.079C318.113 234.427 319.369 231.75 320.732 229.11C324.054 226.426 330.539 226.9 330.602 226.905C330.541 226.902 324.583 225.996 321.106 228.395C322.57 225.593 324.048 223.028 325.685 220.35C330.938 217.357 337.566 219.478 337.63 219.498C337.567 219.477 331.311 217.036 326.038 219.777C328.138 216.365 330.219 213.246 332.328 210.246C335.97 207.917 344.169 210.272 344.248 210.295C343.93 210.202 336.605 207.756 332.719 209.701C335.472 205.808 338.537 202.223 340.698 199.496C344.116 198.608 348.02 200.401 348.061 200.417Z" fill-rule="evenodd" fill="#9B9B9B"/>
	<path d="M139.476 89.7755C134.276 91.3915 132.174 93.432 127.839 93.339C127.038 93.3223 122.765 92.9678 121.697 98.4914C121.609 98.9477 121.682 99.9302 122.451 100.286L126.571 101.374C126.571 101.374 126.508 98.9255 130.098 100.255C132.457 101.128 132.415 98.6965 133.915 98.6981C135.902 98.6989 142.68 97.071 142.68 97.071L139.476 89.7755Z" fill-rule="evenodd" fill="#FFAF99"/>
	<path d="M217.124 230.135C216.974 230.014 216.373 238.018 216.373 238.018L226.901 236.331L226.901 227.198L217.124 230.135Z" fill-rule="evenodd" fill="#EDEDED"/>
	<path d="M173.578 214.443L166.511 223.808L160.562 223.102L158.09 219.896L157.345 218.122L166.25 206.711L173.578 214.443Z" fill-rule="evenodd" fill="#EDEDED"/>
	<path d="M135.085 98.5995C132.512 100.611 130.548 100.491 129.759 101.374C128.97 102.258 128.369 103.026 127.766 103.305C127.346 103.498 126.968 104.539 126.601 105.304C126.441 105.638 126.066 105.673 125.821 105.335C125.524 104.928 125.269 104.318 125.582 103.611C126.153 102.32 127.295 99.737 127.295 99.737L131.167 97.9803L133.503 97.6711L135.085 98.5995Z" fill-rule="evenodd" fill="#FFAF99"/>
	<path d="M136.181 90.983C135.947 92.6888 135.883 95.2642 137.061 98.2784L140.01 97.6783C140.01 97.6783 139.925 94.1124 140.01 93.7412C140.094 93.37 136.733 90.7564 136.733 90.7564L136.181 90.983Z" fill-rule="evenodd" fill="#F29A86"/>
	<g opacity="0.500000">
		<path d="M247.433 247.571C247.433 250.467 227.265 252.817 202.389 252.817C177.512 252.817 157.345 250.467 157.345 247.571C157.345 244.673 177.512 242.324 202.389 242.324C227.265 242.324 247.433 244.673 247.433 247.571Z" fill-rule="evenodd" fill="#C1C1C1"/>
	</g>
	<path d="M212.097 138.946C210.605 151.049 199.399 179.402 197.919 184.207C196.665 188.287 180.957 207.735 172.62 216.891C172.275 217.27 172.056 219.117 171.747 219.454C170.252 221.089 169.201 222.634 168.865 222.985C167.84 224.061 163.902 223.492 161.337 221.636C158.705 219.731 157.566 215.658 158.222 214.248C158.403 213.86 160.122 211.688 160.953 210.335C161.204 209.93 162.559 209.408 162.879 208.949C170.173 198.478 174.443 185.341 184.103 173.571C186.607 150.646 186.725 130.869 190.649 117.196C190.649 117.196 211.767 123.423 234.081 120.067C236.691 143.361 235.288 169.52 233.966 182.498C233.499 187.077 231.307 210.947 229.15 225.684C229.072 226.229 229.828 226.686 229.753 227.198C229.45 229.321 229.066 232.25 228.89 233.692C228.613 235.317 215.805 238.276 215.227 236.145C214.914 234.991 215.036 229.829 215.235 228.012C215.28 227.614 216.364 226.786 216.373 226.384C216.717 211.583 215.139 191.869 217.635 179.784L213.74 138.842L212.097 138.946Z" fill-rule="evenodd" fill="#102B51"/>
	<path d="M214.957 237.638C214.945 238.959 214.957 237.638 215.027 238.556C215.075 239.19 214.335 243.287 213.871 245.78C213.66 246.907 214.038 247.747 214.933 247.81C219.072 248.105 230.138 248.927 232.725 248.973C235.868 249.031 241.784 248.927 242.364 247.709C243.226 245.887 242.779 242.466 236.537 240.433C233.411 239.415 229.78 235.899 229.768 236.579C229.768 236.579 229.048 230.681 226.629 231.122C223.923 231.615 223.237 235.688 219.774 235.317C215.911 234.905 214.976 235.332 214.957 237.638Z" fill-rule="evenodd" fill="#EDEDED"/>
	<path d="" fill-rule="evenodd" fill="#FFFFFF"/>
	<path d="M229.804 246.36C228.18 247.331 226.068 247.693 223.505 245.239C220.941 242.785 214.156 244.23 214.298 243.435C214.151 244.268 213.998 245.086 213.871 245.78C213.66 246.907 214.038 247.747 214.933 247.81C219.072 248.105 230.138 248.927 232.725 248.973C235.868 249.031 241.784 248.927 242.364 247.709C242.724 246.949 242.848 245.907 242.424 244.807C242.536 246.14 231.366 245.422 229.804 246.36Z" fill-rule="evenodd" fill="#102B51"/>
	<path d="M218.394 38.5131L208.554 38.6284L203.551 39.6816L193.76 43.0718L192.238 70.0813C191.417 83.7574 189.355 96.1044 187.194 109.77C187.105 110.328 190.193 113.18 190.094 113.734C189.732 115.754 189.293 117.751 188.759 119.717C188.042 122.36 235.437 122.566 234.962 119.597C234.656 117.679 234.404 115.587 234.198 113.388C234.123 112.594 236.089 110.312 236.026 109.493C235.391 101.177 233.322 93.2348 233.586 86.1508C234.011 74.7068 234.231 63.2548 234.594 51.8092C234.612 51.2973 234.152 44.0058 233.976 44.3364L223.987 40.2309L218.394 38.5131Z" fill-rule="evenodd" fill="#F48C8C"/>
	<path d="M233.869 76.2902L234.443 65.2484L232.887 56.5038C232.887 56.5038 233.647 84.7852 233.348 93.6347L233.869 76.2902Z" fill-rule="evenodd" fill="#EDEDED"/>
	<path d="M240.651 120.69C237.349 123.192 237.959 126.878 237.422 129.282C237.055 130.915 235.977 132.707 237.422 132.271C240.013 131.494 239.932 127.297 239.932 127.297C239.932 127.297 240.727 127.759 240.778 128.832C240.869 130.683 238.393 134.31 238 136.117C237.582 138.04 241.727 136.691 243.473 134.651C246.685 131.178 247.179 124.685 247.219 124.084C247.301 122.786 247.597 119.115 247.597 119.115L240.724 113.684C240.724 113.684 241.168 120.269 240.651 120.69Z" fill-rule="evenodd" fill="#FFAF99"/>
	<path d="M231.137 61.3097L233.439 44.0662C236.842 45.6321 244.914 51.7361 247.597 66.7873C251.029 86.0427 251.587 101.83 251.251 111.35C251.233 111.869 249.107 113.011 249.087 113.482C248.918 117.376 248.691 119.674 248.665 119.883C248.408 121.92 240.303 120.848 240.37 118.856L239.994 113.109L237.79 111.257L237.326 86.6547L231.137 61.3097Z" fill-rule="evenodd" fill="#F48C8C"/>
	<path d="M193.76 43.0718C190.021 45.1663 168.015 70.7514 166.026 72.2553C170.06 75.1503 171.242 84.0491 178.633 81.5659C183.355 75.6074 195.335 64.281 195.335 64.281L193.76 43.0718Z" fill-rule="evenodd" fill="#F48C8C"/>
	<g opacity="0.500000">
		<path d="M192.392 66.8814L196.837 62.5351L188.892 98.9921L191.185 81.5484L192.392 66.8814Z" fill-rule="evenodd" fill="#EA6E6E"/>
	</g>
	<path d="M204.837 39.4112L208.236 50.6111L214.676 47.1458L213.636 45.2642L209.081 48.7084L204.837 39.4112Z" fill-rule="evenodd" fill="#EDEDED"/>
	<path d="M216.528 45.5382L221.027 49.2009L223.197 41.3324L221.36 51.3648L216.222 46.7057L216.528 45.5382Z" fill-rule="evenodd" fill="#EDEDED"/>
	<path d="M159.392 214.044C158.094 213.021 157.911 215.226 157.244 215.938C156.783 216.428 153.058 218.773 150.783 220.19C149.751 220.829 149.729 221.546 149.961 222.479C151.318 227.939 162.811 244.008 169.765 241.873C171.803 241.246 171.547 236.742 169.08 231.735C167.544 228.62 168.453 226.549 169.24 222.143C169.526 220.543 167.897 220.101 163.07 221.671C159.568 222.81 160.689 215.07 159.392 214.044Z" fill-rule="evenodd" fill="#EDEDED"/>
	<path d="M163.569 235.644C160.837 233.08 158.93 233.756 157.572 231.856C156.214 229.956 158.31 227.599 157.241 225.775C156.172 223.952 152.355 219.214 153.392 218.548C152.48 219.129 151.549 219.713 150.783 220.19C149.751 220.829 149.729 221.546 149.961 222.479C151.318 227.939 162.811 244.008 169.765 241.873C170.658 241.598 171.109 240.578 171.129 239.101C169.851 240.188 166.298 238.211 163.569 235.644Z" fill-rule="evenodd" fill="#102B51"/>
	<path d="M208.201 22.6734C208.524 28.0603 209.532 36.6801 208.542 37.463C207.549 38.2444 207.255 38.7031 205.284 39.3167C205.284 39.3167 206.941 46.3483 214.676 47.1456C215.116 47.1305 215.24 54.7082 215.629 54.6533C216.343 54.5516 216.418 47.6893 216.967 47.4731C221.36 45.7482 223.207 40.9359 223.196 39.9884L220.315 38.3549C220.315 38.3549 220.475 35.8462 220.475 33.3972C220.475 29.7296 218.581 22.7433 218.581 22.7433L208.201 22.6734Z" fill-rule="evenodd" fill="#FFAF99"/>
	<path d="M220.475 33.6786C218.513 33.6985 212.149 28.8139 211.761 27.5627C211.372 26.3124 210.327 24.907 210.327 24.907C210.327 24.907 210.211 30.7462 213.221 33.6261C217.3 37.5275 220.409 34.3694 220.409 34.3694L220.475 33.6786Z" fill-rule="evenodd" fill="#F29A86"/>
	<path d="M205.339 16.4526C205.727 22.5653 210.995 27.205 217.106 26.8171C223.219 26.4292 227.972 20.5606 227.583 14.4487C227.502 13.1299 227.471 10.9853 226.973 9.83911C223.957 2.8894 212.939 1.63745 207.284 8.13805C205.311 10.4051 205.165 13.7023 205.339 16.4526Z" fill-rule="evenodd" fill="#FFAF99"/>
	<path d="M227.425 16.9613C227.449 22.8165 224.859 32.7303 219.7 33.9361C217.277 34.5005 211.126 30.6501 210.561 26.5922C209.996 22.5358 209.403 18.1051 209.403 18.1051L227.425 16.9613Z" fill-rule="evenodd" fill="#FFAF99"/>
	<path d="M226.472 20.7068C226.382 21.5136 225.823 22.1161 225.22 22.051C224.618 21.9842 224.203 21.2744 224.293 20.4635C224.383 19.6536 224.942 19.0511 225.544 19.1178C226.145 19.1854 226.562 19.8944 226.472 20.7068Z" fill-rule="evenodd" fill="#0E263F"/>
	<path d="M218.362 20.1743C218.325 20.9858 217.801 21.6234 217.196 21.5947C216.591 21.5661 216.134 20.8825 216.174 20.0693C216.211 19.2538 216.73 18.6195 217.335 18.6473C217.939 18.6767 218.398 19.3587 218.362 20.1743Z" fill-rule="evenodd" fill="#0E263F"/>
	<path d="M223.659 25.9849C223.456 26.0811 222.367 26.4674 222.018 26.4038C221.665 26.3434 220.185 25.7591 220.106 25.5811C220.025 25.4054 224.041 25.8004 223.659 25.9849Z" fill-rule="evenodd" fill="#F29A86"/>
	<path d="M217.954 16.9472C217.952 16.9454 217.949 16.9432 217.946 16.9405L219.147 15.5227C219.028 15.422 218.877 15.3193 218.693 15.2146C218.342 15.015 217.973 14.8732 217.585 14.789C217.032 14.669 216.481 14.6762 215.933 14.8105C215.275 14.9719 214.652 15.3109 214.063 15.8274L215.289 17.224C215.917 16.6724 216.551 16.4661 217.191 16.6048C217.394 16.6488 217.588 16.7236 217.773 16.8292C217.829 16.861 217.879 16.8929 217.924 16.925C217.935 16.9331 217.945 16.9402 217.953 16.9463L217.954 16.9472Z" fill-rule="evenodd" fill="#0E263F"/>
	<path d="M225.057 15.6707C224.687 15.702 224.405 15.7846 224.212 15.9186L225.097 17.198C225.063 17.2214 225.032 17.2386 225.003 17.2496C225.002 17.2502 225 17.2507 224.999 17.2511L225 17.2507C225.004 17.2495 225.009 17.2482 225.015 17.2467C225.061 17.2354 225.118 17.2268 225.188 17.221C225.383 17.2045 225.578 17.216 225.774 17.2556C226.245 17.3507 226.552 17.5824 226.693 17.9508L228.146 17.3931C227.959 16.9066 227.657 16.5147 227.239 16.2174C226.907 15.9815 226.522 15.8192 226.082 15.7305C225.741 15.6617 225.399 15.6417 225.057 15.6707Z" fill-rule="evenodd" fill="#0E263F"/>
	<path d="M223.475 28.6144C223.333 28.2829 218.567 28.1176 218.23 28.2829C217.894 28.4482 219.631 30.3591 220.706 30.4402C221.537 30.5014 223.646 29.007 223.475 28.6144Z" fill-rule="evenodd" fill="#FFFFFF"/>
	<path d="M227.606 16.0798C227.605 16.0798 226.973 9.83909 226.484 10.1769C226.484 10.1769 220.277 12.3279 215.68 9.5283C212.966 7.87494 211.443 11.2643 211.426 14.8048C210.345 14.0242 205.703 12.436 204.789 11.4972C205.275 7.83597 207.375 7.61578 210.326 6.15637C213.933 4.37343 219.872 1.91405 223.43 3.7741C228.94 6.65318 228.66 11.9726 227.606 16.0798Z" fill-rule="evenodd" fill="#0E263F"/>
	<path d="M212.275 10.6753C211.248 12.7866 211.113 19.563 211.377 22.012C211.576 22.8721 209.984 22.6583 209.911 21.9969C209.84 21.334 209.525 17.9748 207.804 17.6441C206.159 17.327 208.834 22.6829 208.889 22.8403C206.867 20.0431 203.982 15.5679 204.826 11.2095L208.449 10.4583L212.275 10.6753Z" fill-rule="evenodd" fill="#0E263F"/>
	<path d="M208.357 36.9477L204.643 38.9865L209.081 48.7084L214.676 47.1459L208.357 36.9477Z" fill-rule="evenodd" fill="#EA6E6E"/>
	<path d="M216.967 47.4731L220.355 37.095L223.587 39.556C223.587 39.556 221.9 47.5279 221.026 49.2012L216.967 47.4731Z" fill-rule="evenodd" fill="#EA6E6E"/>
	<path d="M166.026 72.2553C162.04 74.8117 151.816 78.961 144.118 82.7248C143.477 83.038 142.823 86.3503 142.239 86.6333C140.289 87.5752 138.688 88.3312 137.665 88.7898C134.83 89.8017 139.104 99.0479 141.642 98.2259C142.456 97.9716 143.998 97.373 146.006 96.5424C146.45 96.3587 148.459 97.8762 148.944 97.6711C158.818 93.5107 176.19 83.9211 178.633 81.5659C181.739 78.5699 174.443 73.6623 174.443 73.6623L166.026 72.2553Z" fill-rule="evenodd" fill="#F48C8C"/>
	<g opacity="0.500000">
		<path d="M142.267 91.6395C141.127 87.7135 142.239 86.6333 142.239 86.6333C140.29 87.5752 138.688 88.3312 137.665 88.7898C134.83 89.8017 139.104 99.0479 141.642 98.226C142.402 97.9883 144.184 97.2912 146.006 96.5424C144.307 95.575 142.956 94.0115 142.267 91.6395Z" fill-rule="evenodd" fill="#EA6E6E"/>
	</g>
	<g opacity="0.500000">
		<path d="M239.994 113.109C241.178 113.948 247.8 114.689 249.087 113.482C249.087 113.482 248.863 118.902 248.665 119.883C248.466 120.865 246.196 121.071 244.197 120.851C242.2 120.633 240.088 120.172 239.994 118.73C239.899 117.288 239.994 113.109 239.994 113.109Z" fill-rule="evenodd" fill="#EA6E6E"/>
	</g>
	<path d="M240.651 120.689C240.651 120.689 247.429 121.902 247.24 123.763L247.468 120.74C247.468 120.74 243.131 121.464 240.841 119.979L240.651 120.689Z" fill-rule="evenodd" fill="#F29A86"/>
	<g opacity="0.500000">
		<path d="M190.094 113.734C191.278 115.248 233.164 115.096 234.236 113.109C234.236 113.109 234.734 118.093 234.962 119.597C235.19 121.097 224.48 121.464 224.48 121.464C224.48 121.464 203.951 122.628 193.44 121.015C190.709 120.596 188.542 120.567 188.807 119.542C189.072 118.519 190.094 113.734 190.094 113.734Z" fill-rule="evenodd" fill="#EA6E6E"/>
	</g>
	<g opacity="0.500000">
		<path d="M234.031 73.1645L233.665 63.724L237.326 86.6551L234.031 73.1645Z" fill-rule="evenodd" fill="#EA6E6E"/>
	</g>
	<path d="M227.779 15.362C228.217 12.8899 230.301 4.35279 231.454 3.61116C232.608 2.86874 216.711 -4.94264 209.403 5.02448C209.403 5.02448 205.202 4.4601 203.987 7.8797C202.368 12.4392 205.838 19.1131 205.838 19.1131L211.609 9.22784L215.401 7.11025L224.281 8.17144L227.606 10.4583L227.779 15.362Z" fill-rule="evenodd" fill="#0E263F"/>
	<path d="M205.373 21.1249C205.759 23.0772 207.446 25.5056 208.862 24.6518C210.001 23.9627 209.062 18.0686 207.475 17.8524C205.767 17.6211 204.985 19.1711 205.373 21.1249Z" fill-rule="evenodd" fill="#F29A86"/>
	<g opacity="0.500000">
		<path d="M88.481 247.429C88.481 250.163 69.4371 252.382 45.9449 252.382C22.4536 252.382 3.41046 250.163 3.41046 247.429C3.41046 244.691 22.4536 242.474 45.9449 242.474C69.4371 242.474 88.481 244.691 88.481 247.429Z" fill-rule="evenodd" fill="#C1C1C1"/>
	</g>
	<path d="M43.4673 245.367C33.8587 241.084 8.18854 229.767 8.18854 229.767C8.18854 229.767 -3.3898 226.151 0.989227 213.798C5.36748 201.445 48.2175 80.5501 48.2175 80.5501L119.636 112.133L60.7553 238.973C60.7553 238.973 55.8509 250.89 43.4673 245.367Z" fill-rule="evenodd" fill="#4FC9B8"/>
	<g opacity="0.500000">
		<path d="M70.6071 217.751C44.3862 206.155 35.4111 215.075 26.7945 233.459C26.7945 233.459 20.367 230.552 11.1741 226.487C2.69189 222.735 0.493225 216.077 1.89938 211.23C1.50989 212.327 1.20227 213.195 0.989243 213.798C-3.3898 226.151 8.18854 229.766 8.18854 229.766C8.18854 229.766 17.9561 234.073 27.6959 238.378C33.7458 241.054 39.7846 243.726 43.4673 245.367C55.8509 250.89 60.7553 238.973 60.7553 238.973L70.6071 217.751Z" fill-rule="evenodd" fill="#C1C1C1"/>
	</g>
	<path d="" fill-rule="evenodd" fill="#C1C1C1"/>
	<rect x="46.396271" y="79.744400" rx="1.000000" width="7.948652" height="82.072876" transform="rotate(-66.1441 46.396271 79.744400)" fill="#4FC9B8"/>
	<path d="M64.4889 240.605C60.9381 248.635 51.5497 252.266 43.5205 248.713C35.4906 245.163 31.8595 235.775 35.4111 227.746C38.9619 219.717 48.3503 216.085 56.3795 219.636C64.4094 223.187 68.0405 232.576 64.4889 240.605Z" fill-rule="evenodd" fill="#0E263F"/>
	<rect x="4.239395" y="230.321823" width="2.300210" height="6.023544" transform="rotate(-66.1525 4.239395 230.321823)" fill="#4FC9B8"/>
	<path d="M57.8611 237.674C55.9295 242.044 50.8208 244.018 46.4513 242.086C42.0826 240.154 40.1065 235.046 42.0388 230.676C43.9712 226.308 49.0792 224.332 53.4495 226.263C57.8182 228.196 59.7935 233.305 57.8611 237.674Z" fill-rule="evenodd" fill="#EDEDED"/>
	<path d="M58.3818 236.498C56.4494 240.866 51.3407 242.843 46.972 240.911C42.6024 238.978 40.6263 233.87 42.5587 229.499C44.4911 225.131 49.5999 223.156 53.9685 225.088C58.3381 227.019 60.3134 232.129 58.3818 236.498Z" fill-rule="evenodd" fill="#DCDEE2"/>
	<path d="M53.7993 235.878C52.8581 238.003 50.3733 238.965 48.2486 238.024C46.123 237.084 45.1612 234.6 46.1008 232.474C47.0411 230.348 49.5267 229.387 51.6515 230.327C53.7778 231.267 54.7396 233.752 53.7993 235.878Z" fill-rule="evenodd" fill="#0E263F"/>
	<g opacity="0.500000">
		<path d="M116.781 118.283L45.9459 86.9578L48.2173 80.5497L119.523 112.083L116.781 118.283Z" fill-rule="evenodd" fill="#C1C1C1"/>
	</g>
	<path d="M120.556 100.526L111.09 90.7168L56.628 72.2555L55.3988 75.0345L119.327 103.305L120.556 100.526Z" fill-rule="evenodd" fill="#FFBE5F"/>
	<path d="M64.4937 75.291L65.806 71.4573L79.6259 77.186L78.8446 79.8195C78.6673 79.7408 78.1252 79.713 78.2039 79.5357L79.0218 77.6852L66.3052 72.0614L64.4937 75.291Z" fill-rule="evenodd" fill="#FFAB24"/>
	<rect x="55.398895" y="75.034546" width="3.038796" height="69.900215" transform="rotate(-66.1438 55.398895 75.034546)" fill="#FFAB24"/>
	<rect x="119.216156" y="107.601791" width="11.805859" height="4.207853" transform="rotate(-66.144 119.216156 107.601791)" fill="#4FC9B8"/>
	<g opacity="0.500000">
		<rect x="120.823883" y="103.966965" width="1.928143" height="4.207620" transform="rotate(-66.1462 120.823883 103.966965)" fill="#C1C1C1"/>
	</g>
	<g opacity="0.500000">
		<path d="M69.3735 145.368C69.7583 145.346 72.999 144.982 73.3408 144.942C73.7542 144.894 73.9601 144.687 73.9076 144.156C73.7534 142.593 73.3233 138.719 73.1818 137.426C73.0069 135.799 68.0309 133.618 66.6359 134.572C65.5151 135.339 62.3221 137.703 61.1051 138.606L60.3054 137.512C60.2084 138.094 59.3031 141.704 59.117 142.928C59.0733 143.207 59.1886 143.397 59.4247 143.435C60.6075 143.62 64.194 144.178 64.7409 144.264L64.2139 142.862L68.1621 139.978C68.1621 139.978 68.6637 144.547 68.7034 144.898C68.74 145.249 68.9888 145.39 69.3735 145.368Z" fill-rule="evenodd" fill="#B2B4C1"/>
	</g>
	<g opacity="0.500000">
		<path d="M60.1703 150.58L59.2188 151.739L54.7467 149.762C54.7467 149.762 58.4541 147.041 58.7387 146.832C59.0248 146.623 59.0208 146.337 58.8102 146.017C58.5996 145.696 56.664 143.069 56.4582 142.793C56.2078 142.46 55.9304 142.384 55.494 142.695C54.2166 143.611 51.0791 145.919 50.0275 146.688C48.7072 147.654 49.3065 153.053 50.8304 153.785C52.0537 154.371 55.6958 155.955 57.0877 156.559L56.54 157.796C57.0909 157.592 60.6726 156.569 61.8244 156.121C62.0891 156.017 62.1964 155.823 62.1106 155.6C61.679 154.483 60.3706 151.097 60.1703 150.58Z" fill-rule="evenodd" fill="#B2B4C1"/>
	</g>
	<g opacity="0.500000">
		<path d="M75.1928 158.227C75.0895 156.872 74.638 152.926 74.4648 151.422L75.8113 151.276C75.3558 150.902 72.6834 148.313 71.7176 147.538C71.4966 147.36 71.2748 147.365 71.1238 147.553C70.3727 148.484 68.0953 151.31 67.7463 151.741L69.2256 151.987L69.7487 156.847C69.7487 156.847 65.5421 154.998 65.2178 154.855C64.8935 154.712 64.6487 154.857 64.4762 155.202C64.3005 155.544 62.9961 158.534 62.8602 158.85C62.6948 159.233 62.7696 159.513 63.256 159.734C64.6892 160.382 68.2567 161.944 69.4482 162.47C70.945 163.134 75.3216 159.914 75.1928 158.227Z" fill-rule="evenodd" fill="#B2B4C1"/>
	</g>
	<path d="M69.3075 145.111C69.6906 145.089 72.933 144.724 73.2748 144.682C73.6881 144.635 73.894 144.43 73.8416 143.898C73.6873 142.333 73.2565 138.462 73.1182 137.167C72.9417 135.54 67.9641 133.361 66.5683 134.314C65.4499 135.08 62.2553 137.444 61.0383 138.349L60.241 137.253C60.1441 137.834 59.2371 141.444 59.0495 142.67C59.0058 142.948 59.121 143.139 59.3579 143.175C60.5415 143.36 64.1264 143.919 64.6765 144.005L64.1471 142.603L68.0961 139.718C68.0961 139.718 68.5977 144.288 68.635 144.64C68.674 144.992 68.922 145.13 69.3075 145.111Z" fill-rule="evenodd" fill="#FFFFFF"/>
	<path d="M60.1035 150.321L59.1528 151.48L54.6808 149.502C54.6808 149.502 58.3882 146.782 58.6735 146.575C58.9581 146.364 58.9557 146.08 58.7451 145.758C58.5344 145.438 56.5965 142.812 56.3906 142.535C56.1434 142.202 55.8628 142.126 55.4272 142.436C54.1514 143.353 51.0132 145.661 49.9623 146.43C48.6388 147.395 49.2414 152.795 50.7652 153.527C51.9861 154.114 55.6299 155.697 57.021 156.299L56.4733 157.537C57.0257 157.33 60.6059 156.31 61.7593 155.863C62.0216 155.759 62.1313 155.565 62.0439 155.34C61.6138 154.225 60.3038 150.839 60.1035 150.321Z" fill-rule="evenodd" fill="#FFFFFF"/>
	<path d="M75.1261 157.97C75.0244 156.615 74.5736 152.667 74.3996 151.163L75.7453 151.018C75.2906 150.645 72.6166 148.054 71.6501 147.28C71.4314 147.103 71.2073 147.105 71.0571 147.293C70.3067 148.224 68.0277 151.05 67.6803 151.484L69.1596 151.728L69.6819 156.59C69.6819 156.59 65.4738 154.739 65.1502 154.596C64.8267 154.453 64.5819 154.6 64.4078 154.943C64.2345 155.285 62.9301 158.275 62.7942 158.591C62.6281 158.973 62.7028 159.254 63.1908 159.475C64.6224 160.124 68.1915 161.686 69.3806 162.212C70.8766 162.874 75.2556 159.653 75.1261 157.97Z" fill-rule="evenodd" fill="#FFFFFF"/>
	<g opacity="0.700000">
		<rect x="49.085663" y="161.759567" width="3.740952" height="18.156105" transform="rotate(-66.1448 49.085663 161.759567)" fill="#FFFFFF"/>
	</g>
	<g opacity="0.500000">
		<rect x="51.491730" y="166.145493" width="2.102178" height="10.207289" transform="rotate(-66.1443 51.491730 166.145493)" fill="#FFFFFF"/>
	</g>
	<g opacity="0.400000">
		<path d="M251.336 248.205C251.333 251.082 270.061 253.422 293.166 253.431C316.273 253.437 335.004 251.112 335.007 248.233C335.009 245.357 316.281 243.014 293.175 243.006C270.071 242.998 251.338 245.326 251.336 248.205Z" fill-rule="evenodd" fill="#C1C1C1"/>
	</g>
	<path d="M312.351 43.284C317.443 44.4859 320.249 76.0159 322.392 78.1145C323.591 79.2909 350.062 86.2168 350.825 86.3288C353.06 86.6563 351.581 94.2125 349.392 94.0957C348.732 94.0615 317.076 88.9225 315 87.766C312.923 86.6094 307.03 70.8277 306.728 60.9473C306.6 56.8178 306.634 44.9588 312.351 43.284Z" fill-rule="evenodd" fill="#FFAF99"/>
	<path d="M311.756 42.5766C313.122 43.0599 314.751 44.191 316.022 48.0088C317.293 51.8259 319.556 60.4512 319.873 62.9964C320.191 65.5409 311.108 65.1172 311.108 65.1172L308.439 47.4103L311.756 42.5766Z" fill-rule="evenodd" fill="#FFBE5F"/>
	<path d="M292.614 141.625C291.686 150.411 284.742 199.495 282.641 226.133C282.604 226.615 283.415 227.47 283.377 227.944C283.189 230.305 282.941 233.225 282.839 235.359C282.636 239.605 268.554 238.319 268.554 235.514C268.554 232.965 268.645 230.29 268.706 227.516C268.715 227.001 269.595 226.656 269.606 226.133C270.164 201.54 270.989 160.854 271.612 133.724C271.717 129.161 271.816 124.981 271.909 121.327C271.987 118.166 272.059 115.4 272.125 113.116C272.125 113.116 274.688 113.807 278.589 114.508C287.81 116.163 301.698 115.569 310.063 114.44C311.594 114.234 313.36 113.919 314.88 113.074C316.202 133.275 316.072 166.385 316.064 175.64C316.062 180.544 311.79 212.466 310.666 224.727C310.593 225.515 312.016 226.689 311.944 227.465C311.687 230.222 311.621 232.644 311.201 235.095C310.666 238.196 297.74 238.211 297.926 234.747C298.04 232.588 298.121 229.696 298.212 227.252C298.24 226.566 299.454 225.192 299.477 224.489C299.842 214.494 298.351 183.771 298.245 173.046L294.242 141.453L292.614 141.625Z" fill-rule="evenodd" fill="#102B51"/>
	<g opacity="0.500000">
		<path d="M276.221 130.151C281.097 125.127 282.394 119.307 282.394 119.307C282.394 119.307 288.636 119.686 292.412 119.554L292.412 137.967L294.242 141.453C294.242 141.453 295.386 122.766 295.656 119.546C301.605 119.68 307.229 119.173 307.229 119.173C307.229 119.173 308.56 125.127 313.436 130.151C313.436 130.151 308.879 122.419 308.635 119.045C308.635 119.045 312.526 118.482 315.104 116.937L314.88 113.074C314.88 113.074 303.331 116.085 294.455 115.613C285.58 115.143 272.97 112.819 272.97 112.819L272.125 114.498L272.025 116.984C272.025 116.984 275.686 118.845 280.348 119.157C280.348 119.157 280.154 124.664 276.221 130.151Z" fill-rule="evenodd" fill="#C1C1C1"/>
	</g>
	<path d="M311.756 42.5765C311.756 42.5765 316.38 88.913 316.231 106.586C316.226 107.218 315.453 107.815 315.437 108.37C315.368 110.809 315.192 112.475 314.88 113.074C312.507 117.631 275.669 116.3 272.125 113.116C271.768 112.83 271.655 111.18 271.723 108.575C271.738 108.051 270.997 107.517 271.027 106.974C271.366 100.564 273.381 93.0194 273.114 87.2867C272.606 76.287 279.734 42.602 279.734 42.6028C279.734 42.6028 295.616 38.9097 311.756 42.5765Z" fill-rule="evenodd" fill="#FFBE5F"/>
	<path d="M308.471 21.787C308.19 23.8832 306.563 26.5691 305.009 25.7583C303.755 25.1033 302.699 24.0135 302.979 21.9174C303.256 19.8205 304.356 18.7943 306.023 18.4596C307.818 18.1003 308.75 19.6909 308.471 21.787Z" fill-rule="evenodd" fill="#F29A86"/>
	<path d="M307.979 19.1409C307.645 18.7243 305.847 18.5002 305.324 20.0741L305.519 18.5884C305.519 18.5884 306.096 18.3166 306.786 18.4263C307.673 18.5717 307.979 19.1409 307.979 19.1409Z" fill-rule="evenodd" fill="#FFAF99"/>
	<path d="M281.422 21.7687C281.7 23.8656 283.324 26.5548 284.882 25.7463C286.134 25.0922 287.189 24.004 286.914 21.9078C286.636 19.8101 285.54 18.7831 283.874 18.4453C282.08 18.0828 281.145 19.6742 281.422 21.7687Z" fill-rule="evenodd" fill="#F29A86"/>
	<path d="M281.917 19.1242C282.255 18.7085 284.054 18.4867 284.573 20.0606L284.377 18.5749C284.377 18.5749 283.804 18.3023 283.112 18.4136C282.223 18.5542 281.917 19.1242 281.917 19.1242Z" fill-rule="evenodd" fill="#FFAF99"/>
	<path d="M288.044 30.6819C288.701 32.9775 287.868 41.0512 287.716 42.3349C287.656 42.8103 288.385 48.2815 293.287 49.2052L294.73 56.9768L296.598 49.1169C301.17 47.9516 301.919 42.5233 301.721 41.6696C301.721 41.6696 300.191 34.7374 300.992 30.9696L288.044 30.6819Z" fill-rule="evenodd" fill="#FFAF99"/>
	<path d="M288.243 32.0371C288.243 32.0371 288.343 32.8455 288.255 34.235C288.255 34.235 292.002 38.676 294.677 38.6784C297.358 38.68 300.778 34.5816 300.778 34.5816C300.778 34.5816 300.722 31.8368 300.845 30.6906L288.243 32.0371Z" fill-rule="evenodd" fill="#F29A86"/>
	<path d="M305.519 16.5733C305.516 22.411 300.783 27.1382 294.947 27.1358C289.111 27.1326 284.384 22.3983 284.387 16.5606C284.391 8.72778 289.126 4.96239 294.961 4.96558C300.796 4.97034 305.523 8.90425 305.519 16.5733Z" fill-rule="evenodd" fill="#FFAF99"/>
	<path d="M305.519 16.5734C305.516 22.2258 305.511 26.957 303.359 30.0284C302.056 31.8766 298.687 35.0561 296.245 35.8597C295.638 36.0585 293.902 35.9575 293.3 35.7421C290.875 34.8844 287.772 31.782 286.533 30.0181C284.38 26.9443 284.384 22.2131 284.387 16.5607L305.519 16.5734Z" fill-rule="evenodd" fill="#FFAF99"/>
	<path d="M301.369 20.3944C301.367 21.3538 300.79 22.1336 300.075 22.1312C299.361 22.1312 298.782 21.353 298.783 20.3928C298.783 19.431 299.362 18.6512 300.076 18.6528C300.791 18.6528 301.369 19.4318 301.369 20.3944Z" fill-rule="evenodd" fill="#0E263F"/>
	<path d="M291.367 20.388C291.367 21.3483 290.786 22.1272 290.074 22.1272C289.359 22.1265 288.779 21.3467 288.779 20.3865C288.781 19.4254 289.36 18.6464 290.074 18.6464C290.788 18.6464 291.367 19.4262 291.367 20.388Z" fill-rule="evenodd" fill="#0E263F"/>
	<path d="M298.743 15.8262C298.575 15.8311 298.44 15.8381 298.34 15.8474L298.418 16.6873C298.5 16.6796 298.617 16.6736 298.767 16.6693C299.074 16.6604 299.391 16.6654 299.718 16.6841C300.761 16.7438 301.704 16.9289 302.547 17.2394L302.839 16.4479C301.917 16.1085 300.893 15.9066 299.766 15.8421C299.415 15.8219 299.074 15.8167 298.743 15.8262Z" fill-rule="evenodd" fill="#0E263F"/>
	<path d="M290.981 16.6634C291.132 16.6679 291.249 16.6739 291.331 16.6817L291.41 15.8419C291.309 15.8325 291.175 15.8253 291.007 15.8203C290.676 15.8105 290.335 15.8155 289.983 15.8353C288.856 15.8987 287.832 16.0994 286.911 16.4374L287.202 17.2292C288.044 16.92 288.987 16.7361 290.031 16.6773C290.358 16.6589 290.675 16.6543 290.981 16.6634Z" fill-rule="evenodd" fill="#0E263F"/>
	<path d="M293.097 25.988C293.773 25.6693 296.212 25.6454 296.792 25.9912C297.364 26.3378 295.568 26.7948 294.942 26.7948C294.315 26.7948 292.556 26.2845 293.097 25.988Z" fill-rule="evenodd" fill="#F29A86"/>
	<path d="M290.625 28.3902C292.795 29.2646 296.318 29.6604 298.445 29.7129C297.822 29.8806 295.799 31.8551 294.233 31.6421C292.665 31.4291 291.097 28.7813 290.625 28.3902Z" fill-rule="evenodd" fill="#FFFFFF"/>
	<path d="M301.369 39.8159L304.877 41.4868L299.565 54.0754L296.598 49.1169C296.598 49.1169 300.846 45.4843 301.369 39.8159Z" fill-rule="evenodd" fill="#FFAB24"/>
	<path d="M304.877 41.4865L305.519 41.5525L299.512 55.6855L296.377 49.7245L296.597 49.1171L299.565 54.0755L304.877 41.4865Z" fill-rule="evenodd" fill="#FFAB24"/>
	<path d="M287.967 39.8159L284.166 42.1163L289.738 55.0054L293.287 49.2051C293.287 49.2051 288.635 45.5908 287.967 39.8159Z" fill-rule="evenodd" fill="#FFAB24"/>
	<path d="M284.422 42.4176L283.78 42.4828L289.789 56.6158L293.491 49.7746L293.287 49.2048L289.737 55.0054L284.422 42.4176Z" fill-rule="evenodd" fill="#FFAB24"/>
	<path d="M313.816 65.1434L312.429 59.6023L312.843 64.1626C312.843 64.1626 315.532 88.6348 315.766 92.0854C315.766 92.0854 314.324 68.5495 313.816 65.1434Z" fill-rule="evenodd" fill="#FFAB24"/>
	<path d="M275.239 111.337C275.239 111.337 303.109 113.404 316.072 107.118L315.437 108.37C315.437 108.37 303.437 115.929 275.239 111.337Z" fill-rule="evenodd" fill="#FFAB24"/>
	<g opacity="0.500000">
		<path d="M299.478 224.489C300.575 226.802 310.473 226.721 310.666 224.727C310.666 224.727 311.975 227.117 311.944 227.465C311.913 227.813 311.42 233.904 311.42 233.904C311.42 233.904 299.6 236.708 298.989 236.281C298.381 235.854 297.699 235.639 297.762 234.116C297.827 232.593 298.212 228.035 298.212 227.252C298.212 226.47 299.466 224.83 299.478 224.489Z" fill-rule="evenodd" fill="#C7DAEA"/>
	</g>
	<path d="M297.776 237.06C297.765 238.416 297.776 237.06 297.849 238.002C297.897 238.653 297.137 242.855 296.662 245.414C296.445 246.571 296.832 247.43 297.753 247.494C302 247.797 313.352 248.641 316.006 248.688C319.23 248.748 325.301 248.641 325.896 247.392C326.78 245.523 326.321 242.015 319.916 239.928C316.71 238.885 312.986 235.276 312.971 235.974C312.971 235.974 312.233 229.921 309.752 230.375C306.976 230.881 306.271 235.058 302.721 234.679C298.756 234.258 297.796 234.696 297.776 237.06Z" fill-rule="evenodd" fill="#102B51"/>
	<path d="M313.01 246.008C311.344 247.006 309.177 247.376 306.547 244.86C303.915 242.342 296.955 243.823 297.101 243.006C296.951 243.863 296.796 244.701 296.662 245.414C296.445 246.571 296.832 247.43 297.753 247.494C302 247.797 313.352 248.641 316.006 248.688C319.23 248.748 325.301 248.641 325.896 247.392C326.264 246.611 326.392 245.543 325.958 244.416C326.071 245.784 314.612 245.046 313.01 246.008Z" fill-rule="evenodd" fill="#EDEDED"/>
	<path d="M306.547 244.86C303.915 242.342 296.955 243.823 297.101 243.006C296.951 243.863 296.796 244.701 296.662 245.414C296.445 246.571 296.832 247.43 297.753 247.494C302 247.797 313.352 248.641 316.006 248.688C319.23 248.748 325.301 248.641 325.896 247.392C326.264 246.611 326.392 245.543 325.958 244.416C326.071 245.784 314.612 245.046 313.01 246.008C311.344 247.006 309.177 247.376 306.547 244.86Z" stroke="#EDEDED"/>
	<g opacity="0.500000">
		<path d="M269.565 226.321C269.486 228.236 282.496 228.783 282.662 226.321C282.662 226.321 283.405 227.592 283.377 227.944C283.348 228.298 282.963 234.069 282.839 235.359C282.715 236.647 281.799 237.196 279.971 237.805C278.142 238.414 271.425 237.399 270.121 237.022C268.815 236.647 268.578 236.099 268.574 234.878C268.568 233.658 268.656 228.445 268.706 227.516C268.754 226.589 269.509 227.091 269.565 226.321Z" fill-rule="evenodd" fill="#C7DAEA"/>
	</g>
	<path d="M280.499 235.188C280.619 239.256 284.33 240.661 284.33 243.187C284.33 243.786 284.444 246.132 284.096 246.614C283.049 248.048 280.555 248.223 278.501 248.217C275.546 248.212 272.508 247.997 270.23 247.098C266.417 245.597 270.269 238.443 270.481 235.037C270.66 232.169 280.381 231.12 280.499 235.188Z" fill-rule="evenodd" fill="#102B51"/>
	<path d="M268.574 243.617C268.574 243.617 271.905 245.401 277.898 245.401C284.246 245.401 284.33 243.187 284.33 243.187L284.33 248.061C284.33 248.824 281.46 249.786 276.924 249.786C273.626 249.786 271.252 249.039 269.819 248.275C268.574 247.609 268.574 246.633 268.574 246.633L268.574 243.617Z" fill-rule="evenodd" fill="#EDEDED"/>
	<path d="M277.898 245.401C284.246 245.401 284.33 243.187 284.33 243.187L284.33 248.061C284.33 248.824 281.46 249.786 276.924 249.786C273.626 249.786 271.252 249.039 269.819 248.275C268.574 247.609 268.574 246.633 268.574 246.633L268.574 243.617C268.574 243.617 271.905 245.401 277.898 245.401Z" stroke="#EDEDED"/>
	<rect x="319.709808" y="65.868164" width="7.855745" height="2.675084" transform="rotate(-67.9248 319.709808 65.868164)" fill="#C7DAEA"/>
	<path d="M315.753 89.0108C314.056 91.1729 308.464 88.7509 308.91 86.235C310.118 79.4077 315.487 72.005 316.092 70.5185C316.696 69.0297 316.755 65.1785 318.962 63.1515C321.239 61.0617 324.337 62.3105 324.617 65.4439C324.898 68.5957 322.448 71.1226 321.869 72.5073C321.288 73.892 319.936 83.6771 315.753 89.0108Z" fill-rule="evenodd" fill="#C7DAEA"/>
	<path d="M325.141 59.5935C325.034 59.8566 324.393 59.8439 323.708 59.5665C323.023 59.2891 322.556 58.8511 322.661 58.588C322.768 58.3249 323.409 58.336 324.094 58.6142C324.779 58.8924 325.248 59.3304 325.141 59.5935Z" fill-rule="evenodd" fill="#FFA300"/>
	<g opacity="0.500000">
		<path d="M320.209 79.1128C321.11 75.8999 321.584 73.1877 321.869 72.5073C322.17 71.7855 322.978 70.7505 323.645 69.4811C323.276 70.2029 316.716 68.0098 316.996 66.7865C316.582 68.2784 316.412 69.7299 316.092 70.5184C315.804 71.2235 314.445 73.2616 312.967 75.938C312.176 77.3489 319.831 80.3941 320.209 79.1128Z" fill-rule="evenodd" fill="#80A4DD"/>
	</g>
	<rect x="359.385773" y="68.674393" width="7.855469" height="2.675050" transform="rotate(-24.7907 359.385773 68.674393)" fill="#C7DAEA"/>
	<path d="M340.68 82.8639C337.964 83.2828 335.537 77.6931 337.581 76.1606C343.131 72.0033 352.109 70.2697 353.566 69.5972C355.023 68.9239 357.701 66.153 360.698 66.1824C363.787 66.2134 365.196 69.2419 363.256 71.7195C361.309 74.2123 357.793 74.3832 356.423 74.9969C355.053 75.6113 347.378 81.8313 340.68 82.8639Z" fill-rule="evenodd" fill="#C7DAEA"/>
	<path d="M367.639 67.8079C367.382 67.9272 366.923 67.4796 366.612 66.8087C366.303 66.1371 366.259 65.4988 366.516 65.3795C366.774 65.2595 367.236 65.7054 367.544 66.3771C367.855 67.0488 367.898 67.6879 367.639 67.8079Z" fill-rule="evenodd" fill="#FFA300"/>
	<g opacity="0.500000">
		<path d="M350.697 78.6844C353.551 76.9555 355.751 75.2998 356.423 74.9969C357.139 74.6766 358.434 74.4739 359.79 74.0033C359.026 74.2784 355.738 68.1943 356.777 67.4916C355.455 68.2976 354.339 69.2403 353.566 69.5972C352.875 69.916 350.489 70.474 347.581 71.4175C346.04 71.9064 349.547 79.3625 350.697 78.6844Z" fill-rule="evenodd" fill="#80A4DD"/>
	</g>
	<rect x="346.540741" y="67.666153" width="7.856159" height="2.675495" transform="rotate(-64.9145 346.540741 67.666153)" fill="#ADC6D8"/>
	<path d="M341.378 90.5704C339.572 92.6403 334.114 89.9297 334.689 87.4409C336.255 80.6859 342.004 73.5741 342.686 72.121C343.366 70.6671 343.626 66.8239 345.938 64.9145C348.322 62.9464 351.35 64.3557 351.462 67.5003C351.579 70.6616 349.001 73.0574 348.35 74.4095C347.698 75.7616 345.837 85.464 341.378 90.5704Z" fill-rule="evenodd" fill="#ADC6D8"/>
	<path d="M352.295 61.6841C352.174 61.9425 351.534 61.8955 350.865 61.5831C350.195 61.27 349.752 60.8081 349.87 60.5514C349.99 60.2939 350.63 60.3384 351.299 60.6524C351.97 60.9663 352.414 61.4273 352.295 61.6841Z" fill-rule="evenodd" fill="#C7DAEA"/>
	<g opacity="0.500000">
		<path d="M346.346 80.9196C347.414 77.7583 348.031 75.0748 348.35 74.4095C348.689 73.7044 349.55 72.7132 350.283 71.4803C349.877 72.183 343.441 69.6489 343.784 68.4415C343.293 69.9096 343.045 71.3499 342.686 72.121C342.363 72.8102 340.897 74.7743 339.281 77.3696C338.418 78.7376 345.904 82.1795 346.346 80.9196Z" fill-rule="evenodd" fill="#80A4DD"/>
	</g>
	<rect x="332.882538" y="59.785873" width="2.674629" height="7.856093" transform="rotate(-13.3328 332.882538 59.785873)" fill="#C7DAEA"/>
	<path d="M344.877 88.5855C344.747 91.3303 338.786 92.5965 337.692 90.2882C334.721 84.0229 334.809 74.8785 334.439 73.3157C334.069 71.7545 331.886 68.5798 332.511 65.649C333.157 62.6253 336.405 61.8486 338.447 64.2428C340.502 66.6474 339.971 70.1266 340.3 71.59C340.629 73.055 345.198 81.8139 344.877 88.5855Z" fill-rule="evenodd" fill="#C7DAEA"/>
	<path d="M335.485 59.1683C335.55 59.4449 335.02 59.8058 334.302 59.9767C333.583 60.1476 332.948 60.0618 332.883 59.7867C332.817 59.5101 333.345 59.1468 334.064 58.9775C334.785 58.8066 335.419 58.8925 335.485 59.1683Z" fill-rule="evenodd" fill="#FFA300"/>
	<g opacity="0.500000">
		<path d="M342.773 77.9364C341.645 74.7966 340.463 72.3102 340.3 71.59C340.127 70.8269 340.186 69.5162 339.995 68.0941C340.113 68.8977 333.496 70.9104 333.015 69.7506C333.541 71.2061 334.243 72.489 334.439 73.3157C334.614 74.0574 334.687 76.5064 335.033 79.5437C335.205 81.1533 343.211 79.1995 342.773 77.9364Z" fill-rule="evenodd" fill="#80A4DD"/>
	</g>
	<rect x="292.876312" y="61.279297" width="2.674522" height="7.855766" transform="rotate(-29.6616 292.876312 61.279297)" fill="#ADC6D8"/>
	<path d="M312.483 85.5435C313.131 88.2143 307.767 91.1053 306.067 89.1992C301.457 84.0205 298.969 75.221 298.175 73.826C297.381 72.431 294.393 69.9986 294.169 67.0099C293.938 63.9281 296.836 62.2691 299.47 63.9916C302.117 65.7213 302.585 69.2101 303.314 70.5225C304.042 71.834 310.889 78.9554 312.483 85.5435Z" fill-rule="evenodd" fill="#ADC6D8"/>
	<path d="M295.201 59.9544C295.341 60.2017 294.935 60.6976 294.292 61.0641C293.65 61.429 293.016 61.5259 292.877 61.2795C292.734 61.0331 293.142 60.5363 293.783 60.1714C294.427 59.805 295.059 59.7088 295.201 59.9544Z" fill-rule="evenodd" fill="#C7DAEA"/>
	<g opacity="0.500000">
		<path d="M307.473 75.9158C305.507 73.2188 303.671 71.1664 303.314 70.5225C302.934 69.8381 302.623 68.5631 302.037 67.2523C302.376 67.9908 296.594 71.7824 295.804 70.8055C296.719 72.0542 297.754 73.0876 298.175 73.8261C298.55 74.4874 299.309 76.818 300.496 79.6359C301.113 81.1311 308.246 77.0056 307.473 75.9158Z" fill-rule="evenodd" fill="#80A4DD"/>
	</g>
	<rect x="305.010223" y="60.440536" width="2.675383" height="7.855698" transform="rotate(-13.3226 305.010223 60.440536)" fill="#C7DAEA"/>
	<path d="M317.003 89.2397C316.874 91.9844 310.914 93.2515 309.818 90.9431C306.849 84.6778 306.936 75.5334 306.568 73.9706C306.197 72.4095 304.014 69.2347 304.639 66.3032C305.284 63.2802 308.532 62.5036 310.575 64.897C312.629 67.3023 312.098 70.7816 312.427 72.2457C312.758 73.7099 317.326 82.4688 317.003 89.2397Z" fill-rule="evenodd" fill="#C7DAEA"/>
	<path d="M307.613 59.8233C307.679 60.0999 307.148 60.4616 306.43 60.6324C305.709 60.8026 305.076 60.7167 305.009 60.4417C304.944 60.1651 305.473 59.8026 306.193 59.6325C306.912 59.4616 307.547 59.5474 307.613 59.8233Z" fill-rule="evenodd" fill="#C7DAEA"/>
	<g opacity="0.500000">
		<path d="M314.901 78.5914C313.774 75.4516 312.59 72.9644 312.427 72.2458C312.255 71.4819 312.315 70.1712 312.123 68.7491C312.24 69.5527 305.623 71.5654 305.143 70.4056C305.669 71.8619 306.37 73.1432 306.568 73.9707C306.741 74.7115 306.814 77.1614 307.16 80.1987C307.332 81.8083 315.338 79.8537 314.901 78.5914Z" fill-rule="evenodd" fill="#80A4DD"/>
	</g>
	<rect x="319.364349" y="63.232697" width="2.674460" height="7.855947" transform="rotate(-41.333 319.364349 63.232697)" fill="#ADC6D8"/>
	<path d="M343.476 83.0276C344.651 85.5117 339.983 89.4297 337.932 87.9059C332.368 83.7684 328.152 75.6534 327.092 74.4476C326.032 73.2425 322.613 71.466 321.789 68.5837C320.939 65.6116 323.443 63.401 326.37 64.5552C329.314 65.7133 330.478 69.0352 331.456 70.1727C332.434 71.3102 340.58 76.899 343.476 83.0276Z" fill-rule="evenodd" fill="#ADC6D8"/>
	<path d="M321.373 61.4655C321.56 61.6793 321.262 62.2469 320.707 62.7357C320.152 63.223 319.551 63.4464 319.364 63.2333C319.176 63.0203 319.473 62.452 320.028 61.9639C320.584 61.4758 321.184 61.2533 321.373 61.4655Z" fill-rule="evenodd" fill="#C7DAEA"/>
	<g opacity="0.500000">
		<path d="M336.619 74.6138C334.15 72.3714 331.937 70.7315 331.456 70.1727C330.946 69.5797 330.381 68.3945 329.546 67.2292C330.026 67.8826 325.129 72.7664 324.16 71.9692C325.308 73.0065 326.53 73.8093 327.092 74.4476C327.594 75.0199 328.807 77.1487 330.54 79.6685C331.447 81.0078 337.598 75.5231 336.619 74.6138Z" fill-rule="evenodd" fill="#80A4DD"/>
	</g>
	<rect x="313.923309" y="72.143646" width="52.396675" height="44.762173" fill="#DCDEE2"/>
	<rect x="295.655609" y="72.143646" width="32.809345" height="44.762173" fill="#EDEDED"/>
	<path d="M275.756 52.8299C280.852 54.0317 288.424 89.9837 290.566 92.0831C291.766 93.2595 319.11 96.0869 319.873 96.1982C320.379 96.2737 322.537 96.2602 323.175 96.0535C323.639 97.6838 322.805 103.532 321.056 104.909C319.684 104.529 318.203 104.459 317.87 104.442C317.21 104.407 285.251 102.892 283.175 101.735C281.098 100.579 270.437 80.3736 270.134 70.4931C270.007 66.3636 270.04 54.5047 275.756 52.8299Z" fill-rule="evenodd" fill="#FFAF99"/>
	<path d="M323.175 96.0535C325.389 95.9144 326.377 93.4597 326.52 91.157C326.652 89.0267 329.574 89.3685 328.931 93.951C328.556 96.6322 327.239 96.226 329.44 96.226C333.473 96.226 335.09 94.2745 336.123 96.3738C336.602 97.3484 334.691 104.652 332.1 106.069C330.26 107.075 326.339 105.407 321.462 104.986C317.888 104.68 321.462 100.26 321.462 100.26L323.175 96.0535Z" fill-rule="evenodd" fill="#FFAF99"/>
	<path d="M335.955 98.4676C334.531 99.0271 331.486 99.1273 331.486 99.1273L335.955 98.4676Z" fill-rule="evenodd" fill="#F29A86"/>
	<path d="M335.154 101.26C335.154 101.26 333.016 102.102 330.36 101.775L335.154 101.26Z" fill-rule="evenodd" fill="#F29A86"/>
	<path d="M333.918 104.095C332.89 104.632 330.352 104.593 329.804 104.519L333.918 104.095Z" fill-rule="evenodd" fill="#F29A86"/>
	<path d="M283.882 70.8286L282.4 56.9768L286.612 69.995L285.763 72.1436L289.544 89.8971L283.882 70.8286Z" fill-rule="evenodd" fill="#FFAB24"/>
	<path d="M279.734 42.6028C276.289 43.4835 271.064 46.7323 269.541 52.213C268.017 57.6938 268.554 70.8428 269.118 74.7648C269.389 76.6566 285.477 73.5685 284.572 68.691C283.668 63.8136 279.734 42.6028 279.734 42.6028Z" fill-rule="evenodd" fill="#FFBE5F"/>
	<path d="M355.697 102.608C355.924 102.493 357.795 101.401 357.992 101.284C358.229 101.145 358.301 100.964 358.125 100.655C357.61 99.7474 356.31 97.5122 355.879 96.7641C355.334 95.8238 351.729 95.8365 351.137 96.7904C350.663 97.5559 349.358 99.8483 348.862 100.724L348.084 100.273C348.181 100.652 348.6 103.087 348.816 103.88C349.583 103.674 352.233 103.277 352.59 103.181L351.892 102.472L353.515 99.66C353.515 99.66 355.046 102.3 355.163 102.504C355.281 102.707 355.469 102.724 355.697 102.608Z" fill-rule="evenodd" fill="#FFFFFF"/>
	<path d="M351.51 108.243L351.243 109.201L347.997 109.201C347.997 109.201 349.518 106.555 349.636 106.352C349.753 106.149 349.674 105.976 349.459 105.838C349.245 105.699 347.365 104.626 347.165 104.513C346.925 104.376 346.734 104.405 346.554 104.711C346.025 105.61 344.741 107.854 344.308 108.603C343.763 109.544 345.58 112.66 346.701 112.696C347.6 112.724 350.237 112.706 351.243 112.7L351.243 113.598C351.522 113.324 353.423 111.744 354 111.161C353.438 110.6 351.77 108.503 351.51 108.243Z" fill-rule="evenodd" fill="#FFFFFF"/>
	<path d="M362.682 108.853C362.257 108.058 360.922 105.782 360.413 104.916L361.192 104.467C360.815 104.362 358.497 103.508 357.702 103.296C357.496 104.064 356.515 106.558 356.421 106.915L357.384 106.665L359.007 109.477C359.007 109.477 355.954 109.483 355.72 109.483C355.708 109.738 355.361 112.312 355.362 112.542C356.405 112.551 359.47 112.971 360.333 112.971C361.418 112.971 363.213 109.841 362.682 108.853Z" fill-rule="evenodd" fill="#FFFFFF"/>
	<path d="M284.457 21.7449C284.762 22.6924 285.215 22.3991 285.144 21.5859C285.073 20.7728 285.005 15.8945 285.782 13.986C286.558 12.0767 287.004 8.7008 288.061 8.13564C289.116 7.57046 289.907 6.81532 289.213 6.46875C288.519 6.12059 285.338 7.3932 284.173 10.7866C282.863 14.5941 284.106 20.6488 284.457 21.7449Z" fill-rule="evenodd" fill="#0E263F"/>
	<path d="M305.554 21.7449C305.249 22.6924 304.796 22.3991 304.867 21.5859C304.938 20.7728 305.007 15.8945 304.229 13.986C303.454 12.0767 303.007 8.7008 301.95 8.13564C300.895 7.57046 300.104 6.81532 300.798 6.46875C301.491 6.12059 304.673 7.3932 305.839 10.7866C307.148 14.5941 305.904 20.6488 305.554 21.7449Z" fill-rule="evenodd" fill="#0E263F"/>
	<path d="M119.992 248.556C119.924 246.927 121.688 240.975 121.955 239.077C122.509 235.138 123.537 231.178 124.936 227.449C125.938 224.776 127.614 221.834 129.886 220.02C130.976 219.148 132.87 218.119 134.309 218.665C137.809 219.994 135.089 227.267 134.023 229.391C131.128 235.15 125.08 244.512 119.992 248.556Z" fill-rule="evenodd" fill="#4FC9B8"/>
	<path d="M136.007 222.568C135.981 222.564 133.726 221.907 131.886 222.539C133.338 220.193 134.335 218.749 134.366 218.705C134.336 218.749 133.328 220.212 131.886 222.539C131.947 220.442 131.243 219.199 131.217 219.149C131.224 219.161 132.004 220.326 131.886 222.539C130.875 224.18 129.412 226.368 128.152 228.688C128.581 224.887 127.834 222.241 127.826 222.214C127.834 222.244 128.665 224.733 128.152 228.688C127.199 230.452 126.047 232.696 125.125 234.679C125.316 230.63 124.589 228.608 124.58 228.588C124.588 228.608 125.375 230.427 125.125 234.679C124.416 236.224 123.579 238.153 122.967 239.753C123.091 236.552 122.739 235.118 122.736 235.103C122.74 235.119 123.141 236.274 122.967 239.753C122.388 241.3 121.711 243.272 121.288 244.806C121.711 243.272 122.388 241.298 122.967 239.753C124.625 238.059 128.071 238.313 128.106 238.312C128.072 238.313 124.729 238.204 122.967 239.753C123.592 238.114 124.397 236.261 125.125 234.679C127.826 232.686 131.462 233.762 131.5 233.77C131.463 233.762 127.853 232.824 125.125 234.679C126.06 232.661 127.185 230.48 128.152 228.688C130.008 227.164 134.501 228.255 134.549 228.263C134.368 228.233 130.167 227.363 128.152 228.688C129.416 226.362 130.872 224.183 131.886 222.539C133.712 221.826 135.981 222.562 136.007 222.568Z" fill-rule="evenodd" fill="#9B9B9B"/>
	<path d="M119.895 248.258C118.519 247.384 116.923 245.788 115.518 244.486C112.597 241.783 109.933 238.678 107.669 235.402C106.045 233.053 104.585 229.999 104.391 227.099C104.297 225.705 104.533 223.564 105.802 222.694C108.89 220.578 113.311 226.961 114.446 229.048C117.525 234.712 119.478 241.772 119.895 248.258Z" fill-rule="evenodd" fill="#4FC9B8"/>
	<path d="M109.974 223.526C109.956 223.542 108.132 225.022 107.601 226.895C106.502 224.363 105.886 222.72 105.867 222.67C105.885 222.72 106.511 224.383 107.601 226.895C105.915 225.649 104.491 225.515 104.435 225.51C104.449 225.512 105.849 225.536 107.601 226.895C108.371 228.663 109.335 231.11 110.52 233.468C107.645 230.948 105.043 230.052 105.017 230.042C105.045 230.05 107.565 230.79 110.52 233.468C111.425 235.258 112.61 237.484 113.713 239.371C110.498 236.905 108.422 236.35 108.4 236.344C108.421 236.349 110.363 236.739 113.713 239.371C114.577 240.835 115.685 242.623 116.649 244.039C114.092 242.112 112.714 241.583 112.7 241.576C112.716 241.582 113.89 241.913 116.649 244.039C117.587 245.397 118.823 247.079 119.841 248.303C118.824 247.078 117.587 245.396 116.649 244.039C116.201 241.711 118.378 239.027 118.397 238.997C118.378 239.025 116.382 241.709 116.649 244.039C115.658 242.59 114.598 240.873 113.713 239.371C113.619 236.016 116.576 233.645 116.603 233.619C116.577 233.644 113.747 236.072 113.713 239.371C112.59 237.451 111.44 235.286 110.52 233.468C110.328 231.077 113.788 228.007 113.82 227.973C113.692 228.107 110.581 231.057 110.52 233.468C109.331 231.102 108.375 228.664 107.601 226.895C108.059 224.987 109.957 223.543 109.974 223.526Z" fill-rule="evenodd" fill="#9B9B9B"/>
	<g opacity="0.500000">
		<path d="M112.925 226.706C112.925 226.706 111.747 225.05 110.763 224.206C110.763 224.206 112.918 239.828 119.948 248.214L119 245.671L117.435 234.12L112.925 226.706Z" fill-rule="evenodd" fill="#C1C1C1"/>
	</g>
	<path d="M119.992 248.556C120.075 247.465 118.473 244.771 118.01 243.564C116.493 239.598 115.148 235.671 114.038 231.56C112.255 224.95 111.007 216.345 113.37 209.729C114.243 207.284 116.5 203.407 119.657 204.193C122.015 204.78 123.063 207.876 123.596 209.978C124.995 215.498 124.66 221.333 124.199 226.953C123.668 233.412 122.527 239.865 121.434 246.276L119.992 248.556Z" fill-rule="evenodd" fill="#4FC9B8"/>
	<path d="M119.595 239.333C121.221 233.886 123.912 230.809 123.939 230.779C123.912 230.808 121.188 233.607 119.537 238.816C119.258 236.316 119.033 233.92 118.857 231.643C121.771 224.485 124.544 222.476 124.572 222.457C124.46 222.537 121.738 224.731 118.857 231.643C118.63 228.635 118.45 225.372 118.362 222.801C120.741 216.165 124.28 213.542 124.315 213.517C124.28 213.543 120.742 215.904 118.346 222.252C118.247 219.059 118.242 216.231 118.283 213.816C119.533 208.533 122.335 206.611 122.363 206.592C122.336 206.61 119.653 208.194 118.302 212.928C118.43 207.332 118.808 204.178 118.817 204.105C118.808 204.182 118.399 207.868 118.283 213.816C117.726 212.822 115.766 209.541 113.853 208.566C116.04 209.681 118.22 213.697 118.283 213.816C118.242 216.22 118.249 219.085 118.346 222.252C117.82 221.125 115.991 218.369 112.156 216.477C116.965 218.85 118.351 222.763 118.362 222.801C118.449 225.34 118.387 228.157 118.61 231.12C118.076 230.162 116.53 227.96 112.902 226.239C117.57 228.452 118.845 231.612 118.857 231.643C119.022 233.765 119.284 236.5 119.537 238.816C119.077 238.037 117.708 236.356 115.055 234.812C118.609 236.88 119.457 238.777 119.595 239.333C119.893 241.967 120.009 244.439 120.44 247.298C120.026 244.551 119.885 241.873 119.595 239.333Z" fill-rule="evenodd" fill="#9B9B9B"/>
	<g opacity="0.500000">
		<path d="M124.478 228.721C124.478 228.721 124.807 236.228 123.251 242.2L120.673 247.986C120.673 247.986 123.582 233.292 123.797 230.949L124.478 228.721Z" fill-rule="evenodd" fill="#C1C1C1"/>
	</g>
	<g opacity="0.500000">
		<path d="M134.878 248.223C134.878 249.18 128.213 249.957 119.99 249.957C111.767 249.957 105.102 249.18 105.102 248.223C105.102 247.264 111.767 246.489 119.99 246.489C128.213 246.489 134.878 247.264 134.878 248.223Z" fill-rule="evenodd" fill="#C1C1C1"/>
	</g>
	<defs/>
</svg>
